<svg xmlns="http://www.w3.org/2000/svg" xmlns:xlink="http://www.w3.org/1999/xlink" width="982" height="129" viewBox="0 0 982 129">
    <defs>
        <path id="a" d="M0 0h982v160H0z"/>
        <linearGradient id="c" x1="70.514%" x2="97.672%" y1="38.172%" y2="65.558%">
            <stop offset="0%" stop-color="#318AF7"/>
            <stop offset="100%" stop-color="#1652EC"/>
        </linearGradient>
        <linearGradient id="d" x1="50%" x2="50%" y1="0%" y2="100%">
            <stop offset="0%" stop-color="#1A4AC8"/>
            <stop offset="100%" stop-color="#1A4AC8"/>
        </linearGradient>
        <linearGradient id="f" x1="0%" x2="92.124%" y1="35.38%" y2="64.574%">
            <stop offset="0%" stop-color="#1A4AC8"/>
            <stop offset="100%" stop-color="#3881E6"/>
        </linearGradient>
        <path id="e" d="M12.378 66.118l110.316 2.836 132.928 132.928-111.224-3.143z"/>
        <linearGradient id="g" x1="70.514%" x2="97.672%" y1="39.778%" y2="63.446%">
            <stop offset="0%" stop-color="#318AF7"/>
            <stop offset="100%" stop-color="#1652EC"/>
        </linearGradient>
        <linearGradient id="h" x1="50%" x2="50%" y1="0%" y2="100%">
            <stop offset="0%" stop-color="#1A4AC8"/>
            <stop offset="100%" stop-color="#1A4AC8"/>
        </linearGradient>
        <linearGradient id="j" x1="0%" x2="92.124%" y1="35.516%" y2="64.437%">
            <stop offset="0%" stop-color="#1A4AC8"/>
            <stop offset="100%" stop-color="#3881E6"/>
        </linearGradient>
        <path id="i" d="M10.22 56.084l92.96 2.038 111.6 111.6-93.47-2.548z"/>
        <linearGradient id="k" x1="70.514%" x2="97.672%" y1="41.016%" y2="61.817%">
            <stop offset="0%" stop-color="#318AF7"/>
            <stop offset="100%" stop-color="#1652EC"/>
        </linearGradient>
        <linearGradient id="l" x1="50%" x2="50%" y1="0%" y2="100%">
            <stop offset="0%" stop-color="#1A4AC8"/>
            <stop offset="100%" stop-color="#1A4AC8"/>
        </linearGradient>
        <linearGradient id="n" x1="0%" x2="92.124%" y1="35.541%" y2="64.413%">
            <stop offset="0%" stop-color="#1A4AC8"/>
            <stop offset="100%" stop-color="#3881E6"/>
        </linearGradient>
        <path id="m" d="M8.559 47.259l78.138 1.66 93.744 93.744-78.562-2.092z"/>
        <linearGradient id="o" x1="70.514%" x2="97.672%" y1="35.149%" y2="69.535%">
            <stop offset="0%" stop-color="#318AF7"/>
            <stop offset="100%" stop-color="#1652EC"/>
        </linearGradient>
        <linearGradient id="p" x1="50%" x2="50%" y1="0%" y2="100%">
            <stop offset="0%" stop-color="#1A4AC8"/>
            <stop offset="100%" stop-color="#1A4AC8"/>
        </linearGradient>
        <path id="q" d="M8.559 47.259l78.138 1.66 93.744 93.744-78.562-2.092z"/>
        <linearGradient id="r" x1="70.514%" x2="97.672%" y1="34.808%" y2="69.983%">
            <stop offset="0%" stop-color="#318AF7"/>
            <stop offset="100%" stop-color="#1652EC"/>
        </linearGradient>
        <linearGradient id="s" x1="70.514%" x2="97.672%" y1="34.807%" y2="69.984%">
            <stop offset="0%" stop-color="#318AF7"/>
            <stop offset="100%" stop-color="#1652EC"/>
        </linearGradient>
        <linearGradient id="t" x1="50%" x2="50%" y1="0%" y2="100%">
            <stop offset="0%" stop-color="#1A4AC8"/>
            <stop offset="100%" stop-color="#1A4AC8"/>
        </linearGradient>
        <linearGradient id="v" x1="0%" x2="92.124%" y1="35.579%" y2="64.375%">
            <stop offset="0%" stop-color="#1A4AC8"/>
            <stop offset="100%" stop-color="#3881E6"/>
        </linearGradient>
        <path id="u" d="M9.555 53.144l87.738 1.77 105.152 105.153-88.136-2.333z"/>
        <linearGradient id="w" x1="70.514%" x2="97.672%" y1="39.211%" y2="64.191%">
            <stop offset="0%" stop-color="#318AF7"/>
            <stop offset="100%" stop-color="#1652EC"/>
        </linearGradient>
        <linearGradient id="x" x1="50%" x2="50%" y1="0%" y2="100%">
            <stop offset="0%" stop-color="#1A4AC8"/>
            <stop offset="100%" stop-color="#1A4AC8"/>
        </linearGradient>
        <linearGradient id="z" x1="0%" x2="92.124%" y1="35.725%" y2="64.229%">
            <stop offset="0%" stop-color="#1A4AC8"/>
            <stop offset="100%" stop-color="#3881E6"/>
        </linearGradient>
        <path id="y" d="M8.318 47.573l78.116 1.26 93.248 93.248-78.733-1.877z"/>
        <linearGradient id="A" x1="70.514%" x2="97.672%" y1="37.244%" y2="66.779%">
            <stop offset="0%" stop-color="#318AF7"/>
            <stop offset="100%" stop-color="#1652EC"/>
        </linearGradient>
        <linearGradient id="B" x1="50%" x2="50%" y1="0%" y2="100%">
            <stop offset="0%" stop-color="#1A4AC8"/>
            <stop offset="100%" stop-color="#1A4AC8"/>
        </linearGradient>
        <path id="C" d="M8.318 47.573l78.116 1.26 93.248 93.248-78.733-1.877z"/>
        <linearGradient id="D" x1="70.514%" x2="97.672%" y1="30.533%" y2="75.606%">
            <stop offset="0%" stop-color="#318AF7"/>
            <stop offset="100%" stop-color="#1652EC"/>
        </linearGradient>
        <path id="E" d="M12.378 66.118l110.316 2.836 132.928 132.928-111.224-3.143z"/>
    </defs>
    <g fill="none" fill-rule="evenodd" transform="translate(0 -7)">
        <mask id="b" fill="#fff">
            <use xlink:href="#a"/>
        </mask>
        <g mask="url(#b)">
            <g transform="translate(-93 -89)">
                <path fill="url(#c)" d="M80.01 96H268v186.904L235.375 301h-94.973L0 172.096z"/>
                <path fill="url(#d)" d="M0 172h187v129H0z"/>
                <use fill="url(#f)" transform="rotate(-45 134 134)" xlink:href="#e"/>
            </g>
            <g transform="translate(93 -29)">
                <path fill="url(#g)" d="M67.173 81H225v157.056L216.665 241H99.603L0 144.944z"/>
                <path fill="url(#h)" d="M0 145h157v96H0z"/>
                <use fill="url(#j)" transform="rotate(-45 112.5 112.903)" xlink:href="#i"/>
            </g>
            <g transform="translate(249 18)">
                <path fill="url(#k)" d="M56.425 68H189v126H76.87L0 121.817z"/>
                <path fill="url(#l)" d="M0 122h132v72H0z"/>
                <use fill="url(#n)" transform="rotate(-45 94.5 94.961)" xlink:href="#m"/>
            </g>
            <g transform="translate(360 -18)">
                <path fill="url(#o)" d="M56.425 68H189v132.183L152.747 230h-42.209L0 121.817z"/>
                <path fill="url(#p)" d="M0 122h132v108H0z"/>
                <use fill="url(#n)" transform="rotate(-45 94.5 94.961)" xlink:href="#q"/>
            </g>
            <g transform="translate(488 -48)">
                <path fill="url(#r)" d="M63.292 76.212H212v148.316L170.965 260h-45.16L0 137z"/>
                <path fill="url(#s)" d="M63.974 76.21H211.784l.216.002v148.316L169.77 260H124.82L0 137z"/>
                <path fill="url(#t)" d="M0 137h148v123H0z"/>
                <use fill="url(#v)" transform="rotate(-45 106 106.606)" xlink:href="#u"/>
            </g>
            <g transform="translate(630 7)">
                <path fill="url(#w)" d="M56.127 67.655H188v131.528L176.59 205H86.047L0 122z"/>
                <path fill="url(#x)" d="M0 122h131v83H0z"/>
                <use fill="url(#z)" transform="rotate(-45 94 94.827)" xlink:href="#y"/>
            </g>
            <g transform="translate(759 -5)">
                <path fill="url(#A)" d="M56.127 67.655H188v131.528L166.438 217H98.635L0 122z"/>
                <path fill="url(#B)" d="M0 122h131v95H0z"/>
                <use fill="url(#z)" transform="rotate(-45 94 94.827)" xlink:href="#C"/>
            </g>
            <g transform="translate(889 -89)">
                <path fill="url(#D)" d="M80.01 96H268v186.904L186.818 359 0 172.096z"/>
                <path fill="url(#d)" d="M0 172h187v129H0z"/>
                <use fill="url(#f)" transform="rotate(-45 134 134)" xlink:href="#E"/>
            </g>
        </g>
    </g>
</svg>
