<svg xmlns="http://www.w3.org/2000/svg" width="20" height="20" viewBox="0 0 20 20">
    <g fill="none" fill-rule="nonzero">
        <path fill="#F1B200" d="M19.701 12.418c-1.336 5.358-6.762 8.619-12.121 7.283C2.224 18.365-1.037 12.938.3 7.58 1.634 2.225 7.06-1.036 12.418.3c5.358 1.335 8.619 6.762 7.283 12.12v-.002z"/>
        <path fill="#FFF" d="M10.982 5.685c1.413.129 2.531.582 2.656 1.935.093.99-.304 1.583-.938 1.92 1.044.261 1.699.909 1.57 2.36-.16 1.803-1.448 2.287-3.288 2.397v1.893H9.887v-1.867c-.283 0-.573-.003-.874-.01v1.877H7.921l-.001-1.896c-.256-.002-.517-.007-.782-.007H5.714l.218-1.363s.81.013.795 0c.31 0 .392-.233.412-.378V7.407c-.043-.231-.187-.5-.63-.5.013-.015-.795 0-.795 0V5.69c1.313 0 2.048 0 2.207-.004V3.81h1.093v1.838c.292-.006.586-.012.874-.012V3.81h1.094v1.875zm1.126 5.99c0-1.478-2.326-1.255-3.068-1.255v2.513c.742 0 3.068.161 3.068-1.257zm-.51-3.545c0-1.345-1.94-1.14-2.558-1.14v2.279c.618 0 2.558.15 2.558-1.139z"/>
    </g>
</svg>
