<svg xmlns="http://www.w3.org/2000/svg" width="48" height="48" viewBox="0 0 48 48">
    <g fill="none" fill-rule="evenodd">
        <path fill="#C4D0EF" fill-rule="nonzero" d="M46.084 14.644c-2.53-5.9-6.831-10.19-12.78-12.728A23.59 23.59 0 0 0 23.96 0c-3.254 0-6.347.642-9.317 1.916-5.9 2.53-10.22 6.819-12.754 12.728C.62 17.604 0 20.707 0 23.96c0 3.255.62 6.383 1.89 9.344 2.535 5.91 6.855 10.223 12.754 12.754a23.348 23.348 0 0 0 9.317 1.916c3.254 0 6.37-.648 9.342-1.916 5.95-2.537 10.25-6.855 12.781-12.754A23.476 23.476 0 0 0 48 23.96c0-3.253-.641-6.345-1.916-9.316zm-3.831 19.92c-1.884 3.23-4.465 5.794-7.716 7.689-3.23 1.884-6.771 2.834-10.576 2.834-2.86 0-5.59-.55-8.188-1.68-2.598-1.128-4.842-2.61-6.719-4.487-1.876-1.877-3.37-4.142-4.487-6.745-1.114-2.593-1.653-5.354-1.653-8.214 0-3.806.935-7.328 2.808-10.55 1.88-3.234 4.462-5.8 7.69-7.69 3.227-1.89 6.744-2.834 10.549-2.834 3.805 0 7.345.95 10.576 2.834 3.25 1.896 5.826 4.462 7.715 7.69 1.89 3.227 2.834 6.744 2.834 10.55 0 3.805-.938 7.351-2.833 10.603z"/>
        <g fill="#1F5AF6">
            <path fill-rule="nonzero" d="M18 24h3.5v7.667h2.327c1.872 0 3.308-.6 4.31-1.799 1-1.199 1.51-2.92 1.53-5.164v-1.17c0-2.282-.485-4.025-1.453-5.228-.969-1.204-2.374-1.806-4.217-1.806H21.5V22H18v-9h6.005c1.797 0 3.392.413 4.783 1.24 1.392.827 2.47 2 3.233 3.52.764 1.519 1.146 3.26 1.146 5.22v1.054c0 1.99-.384 3.74-1.152 5.25-.769 1.51-1.863 2.673-3.282 3.49-1.42.817-3.047 1.226-4.881 1.226H18V24z"/>
            <path d="M14 24h11v2H14z"/>
        </g>
    </g>
</svg>
