<svg xmlns="http://www.w3.org/2000/svg" width="48" height="48" viewBox="0 0 48 48">
    <g fill="none" fill-rule="evenodd">
        <path fill="#C4D0EF" fill-rule="nonzero" d="M46.084 14.644c-2.53-5.9-6.831-10.19-12.78-12.728A23.59 23.59 0 0 0 23.96 0c-3.254 0-6.347.642-9.317 1.916-5.9 2.53-10.22 6.819-12.754 12.728C.62 17.604 0 20.707 0 23.96c0 3.255.62 6.383 1.89 9.344 2.535 5.91 6.855 10.223 12.754 12.754a23.348 23.348 0 0 0 9.317 1.916c3.254 0 6.37-.648 9.342-1.916 5.95-2.537 10.25-6.855 12.781-12.754A23.476 23.476 0 0 0 48 23.96c0-3.253-.641-6.345-1.916-9.316zm-3.831 19.92c-1.884 3.23-4.465 5.794-7.716 7.689-3.23 1.884-6.771 2.834-10.576 2.834-2.86 0-5.59-.55-8.188-1.68-2.598-1.128-4.842-2.61-6.719-4.487-1.876-1.877-3.37-4.142-4.487-6.745-1.114-2.593-1.653-5.354-1.653-8.214 0-3.806.935-7.328 2.808-10.55 1.88-3.234 4.462-5.8 7.69-7.69 3.227-1.89 6.744-2.834 10.549-2.834 3.805 0 7.345.95 10.576 2.834 3.25 1.896 5.826 4.462 7.715 7.69 1.89 3.227 2.834 6.744 2.834 10.55 0 3.805-.938 7.351-2.833 10.603z"/>
        <path fill="#1F5AF6" d="M30.457 17h-2.914l.004-.009h-9.56v-2.475h12.81v1.713l-.34.771zm-.88 2l-6.169 14h-3.237l6.45-14h2.955z"/>
    </g>
</svg>
