<svg xmlns="http://www.w3.org/2000/svg" width="48" height="48" viewBox="0 0 48 48">
    <g fill="none" fill-rule="evenodd">
        <path fill="#D8D8D8" fill-opacity="0" d="M0 0h48v48H0z"/>
        <g fill="#FFF" fill-rule="nonzero">
            <path d="M47.313 38.17a4.005 4.005 0 0 0-1.772-2.576 4.007 4.007 0 0 0-3.08-.537l-4.94 1.131v-2.02a19.515 19.515 0 0 0 2.756-3.265 19.146 19.146 0 0 0 2.706-6.374c.606-2.707.619-5.573.037-8.29a.926.926 0 1 0-1.81.388c.526 2.457.514 5.05-.034 7.498a17.302 17.302 0 0 1-2.445 5.759 16.481 16.481 0 0 1-1.21 1.597V21.219a.926.926 0 0 0-.926-.925h-7.323v-9.886a.926.926 0 0 0-.923-.926L20.1 9.454h-.003a.924.924 0 0 0-.925.926v5.142h-7.325a.926.926 0 0 0-.925.926v9.167H8.859v-1.257a.926.926 0 0 0-.926-.925h-.95a17.504 17.504 0 0 1-.277-2.697 17.39 17.39 0 0 1 1.616-7.792.926.926 0 0 0-1.678-.782 19.248 19.248 0 0 0-1.789 8.62c.022.886.107 1.774.25 2.65H.925a.926.926 0 0 0-.925.926v16.273c0 .511.414.925.926.925h7.007a.926.926 0 0 0 .926-.925v-.88h3.482l14.107 5.532a11.158 11.158 0 0 0 6.851.429l11.057-2.81a4.028 4.028 0 0 0 2.957-4.733zM35.669 22.144v14.467l-2.474.567a9.398 9.398 0 0 1-3.91.056l-.013-.003v-1.404c.706-1.053.94-2.388.57-3.606a4.157 4.157 0 0 0-.568-1.173l-.002-.003v-8.901h6.397zM21.023 11.309l6.398.021v18.246l-3.576-1.48-2.822-1.168v-15.62zm-8.25 6.065h6.398v8.787l-1.149-.475a.924.924 0 0 0-.354-.07h-4.895v-8.242zm-5.766 22.33H1.851v-14.42H7.007v14.42zM43.9 41.108l-11.057 2.81a9.304 9.304 0 0 1-5.72-.357l-14.268-5.597a.925.925 0 0 0-.339-.064H8.86V27.467h8.625l5.99 2.48 3.278 1.356c1.16.481 1.714 1.841 1.239 3a2.647 2.647 0 0 1-.37.65 2.386 2.386 0 0 1-2.427.837l-.022-.005a2.286 2.286 0 0 1-.16-.046l-6.228-2.395-.078-.03a.926.926 0 1 0-.664 1.729s3.512 1.35 6.19 2.383c.054.02.108.04.161.058l2.057.791c.622.24 1.24.477 1.887.642a11.18 11.18 0 0 0 5.271.066l3.194-.73c.003-.001.006-.003.01-.003l6.062-1.388a2.167 2.167 0 0 1 1.667.29c.498.32.838.815.959 1.394a2.18 2.18 0 0 1-1.6 2.561zM11.838 7.584a.922.922 0 0 0 .62-.238 17.597 17.597 0 0 1 5.706-3.442 17.634 17.634 0 0 1 7.148-1.015c1.734.114 3.432.484 5.047 1.1a.925.925 0 1 0 .66-1.73 19.21 19.21 0 0 0-5.585-1.218 19.497 19.497 0 0 0-7.905 1.124 19.465 19.465 0 0 0-6.311 3.807.926.926 0 0 0 .62 1.612z"/>
            <path d="M32.854 14.191a.925.925 0 0 0 1.306-.091l7.616-8.768a.925.925 0 1 0-1.397-1.214l-7.617 8.767a.925.925 0 0 0 .092 1.306zM39.68 10.233a2.327 2.327 0 0 0-2.325 2.324 2.327 2.327 0 0 0 2.324 2.325 2.327 2.327 0 0 0 2.324-2.325 2.327 2.327 0 0 0-2.324-2.324zm0 2.797a.473.473 0 1 1 0-.946.473.473 0 0 1 0 .946zM34.538 8.172a2.327 2.327 0 0 0 2.324-2.324 2.327 2.327 0 0 0-2.324-2.324 2.327 2.327 0 0 0-2.324 2.324 2.327 2.327 0 0 0 2.324 2.324zm0-2.797a.473.473 0 1 1-.001.947.473.473 0 0 1 .001-.947zM8.547 9.76c.149.356.513.59.9.57a.935.935 0 0 0 .835-.641.933.933 0 0 0-.317-1.018.936.936 0 0 0-1.077-.035.934.934 0 0 0-.34 1.124z"/>
        </g>
    </g>
</svg>
