<svg xmlns="http://www.w3.org/2000/svg" width="22" height="22" viewBox="0 0 22 22">
    <g fill="none" fill-rule="evenodd">
        <path fill="#3F7AFF" fill-rule="nonzero" d="M10.81 12.89a1.238 1.238 0 0 0-1.22 1.205 1.216 1.216 0 0 0 2.432.012 1.238 1.238 0 0 0-1.211-1.218zm2.602-5.685c-1.258-1.585-3.648-1.614-5.028-.043-.562.637-.493.703.112 1.142.604.44.632.646 1.254-.086a1.378 1.378 0 0 1 1.84-.286c.535.344.554.861.03 1.206-.316.213-.66.389-.981.596a1.722 1.722 0 0 0-.846 1.605c.012.286.134.455.444.443h1.185a.344.344 0 0 0 .388-.36c-.022-.393.224-.565.503-.732.215-.13.432-.257.644-.391 1.225-.78 1.118-2.27.455-3.094z"/>
        <circle cx="11" cy="11" r="8.25" stroke="#3F7AFF" stroke-width="1.5"/>
    </g>
</svg>
