<svg xmlns="http://www.w3.org/2000/svg" width="236" height="130" viewBox="0 0 236 130">
    <defs>
        <linearGradient id="a" x1="89.641%" x2="-4.995%" y1="5.988%" y2="122.961%">
            <stop offset="0%" stop-color="#F7931A"/>
            <stop offset="100%" stop-color="#C47414"/>
        </linearGradient>
        <linearGradient id="b" x1="81.507%" x2="-19.164%" y1="8.022%" y2="128.174%">
            <stop offset="0%" stop-color="#1F5AF6"/>
            <stop offset="100%" stop-color="#1A4AC8"/>
        </linearGradient>
    </defs>
    <g fill="none" fill-rule="evenodd">
        <circle cx="171" cy="65" r="65" fill="url(#a)"/>
        <circle cx="65" cy="65" r="65" fill="url(#b)"/>
        <path fill="#FFF" d="M35.233 65.224L65.224 35.21l29.992 30.015L65.224 95.24z"/>
        <path fill="#FFF" fill-rule="nonzero" d="M189.424 66.379c-1.286-1.682-3.226-2.838-5.822-3.466 3.305-1.705 4.757-4.6 4.359-8.683-.134-1.481-.538-2.765-1.215-3.853a7.659 7.659 0 0 0-2.745-2.624 15.01 15.01 0 0 0-3.76-1.515c-1.352-.348-2.905-.6-4.657-.757V37h-5.123v8.245c-.887 0-2.24.023-4.058.068V37h-5.124v8.48c-.732.023-1.807.035-3.226.035L151 45.48V51h3.692c1.686 0 2.673.762 2.961 2.288v9.659c.222 0 .4.011.533.034h-.533V76.51c-.177 1.144-.82 1.717-1.93 1.717h-3.691L151 84.386h6.654c.421 0 1.03.005 1.83.015.798.012 1.396.017 1.796.017V93h5.124v-8.48c.931.022 2.284.033 4.058.033V93h5.123v-8.582c1.82-.09 3.433-.257 4.84-.504a19.524 19.524 0 0 0 4.042-1.162c1.286-.527 2.362-1.184 3.227-1.969.865-.784 1.58-1.783 2.146-2.995.565-1.212.926-2.614 1.08-4.207.29-3.118-.21-5.52-1.496-7.202zm-23.16-15.06c.157 0 .6-.007 1.331-.018.731-.012 1.338-.023 1.821-.034.483-.012 1.135.017 1.956.085.82.068 1.512.16 2.074.273.562.114 1.18.302 1.854.564.675.261 1.214.58 1.618.956.405.376.748.854 1.029 1.435.28.58.421 1.247.421 1.998 0 .638-.1 1.218-.303 1.742a3.283 3.283 0 0 1-.91 1.316c-.404.353-.82.66-1.248.922-.427.262-.972.472-1.635.632a33.35 33.35 0 0 1-1.736.375c-.495.092-1.113.154-1.855.188s-1.304.058-1.686.069c-.382.011-.905.011-1.568 0a127.67 127.67 0 0 0-1.163-.017V51.318zm14.422 22.832c-.21.523-.48.978-.81 1.364-.33.386-.766.727-1.305 1.022-.54.296-1.063.534-1.57.716a12.32 12.32 0 0 1-1.833.478c-.717.136-1.345.232-1.885.29-.54.056-1.184.101-1.933.136-.749.033-1.333.05-1.751.05-.419 0-.948-.006-1.587-.017-.639-.01-1.046-.016-1.223-.016V66.653c.177 0 .7-.011 1.57-.035.87-.022 1.58-.033 2.132-.033.55 0 1.31.033 2.28.102.969.068 1.784.17 2.446.306.66.137 1.381.346 2.164.63.782.285 1.415.631 1.9 1.04.485.41.892.932 1.223 1.568.33.636.496 1.364.496 2.182a4.63 4.63 0 0 1-.314 1.738z"/>
    </g>
</svg>
