<svg xmlns="http://www.w3.org/2000/svg" width="32" height="32" viewBox="0 0 32 32">
    <g fill="none" fill-rule="evenodd">
        <path fill="#D8D8D8" fill-opacity="0" d="M0 0h32v32H0z"/>
        <path fill="#FFF" fill-rule="nonzero" d="M28.868 20.903a3.736 3.736 0 0 1-3.436 2.243l-5.256-.012a3.757 3.757 0 0 1-3.473-2.335 14.051 14.051 0 0 1-.674-2.08.938.938 0 0 1 1.823-.437c.146.61.343 1.215.585 1.802a1.888 1.888 0 0 0 1.743 1.175l5.257.012a1.862 1.862 0 0 0 1.712-1.117c.476-1.091 1.042-2.777 1.037-4.61-.004-1.824-.572-3.475-1.047-4.539a1.891 1.891 0 0 0-1.72-1.118l-5.193-.012a1.866 1.866 0 0 0-1.74 1.185 15.172 15.172 0 0 0-.576 1.83.938.938 0 0 1-.91.715H5.243l-1.98 1.979 1.591 1.59 1.194-1.192a.937.937 0 0 1 1.325 0l1.194 1.193 1.193-1.193a.937.937 0 0 1 1.326 0l1.856 1.856a.937.937 0 1 1-1.326 1.326l-1.193-1.194-1.193 1.194a.937.937 0 0 1-1.326 0L6.71 17.97l-1.193 1.194a.937.937 0 0 1-1.326 0l-2.916-2.917a.937.937 0 0 1 0-1.326l2.916-2.917a.938.938 0 0 1 .663-.274h11.427c.132-.45.284-.899.455-1.343A3.751 3.751 0 0 1 20.23 8l5.194.012a3.769 3.769 0 0 1 3.426 2.228c.55 1.23 1.206 3.147 1.211 5.299.005 2.159-.646 4.109-1.193 5.364zm-4.926-4.52a1.5 1.5 0 1 1 2.121-2.12 1.5 1.5 0 0 1-2.121 2.12z"/>
    </g>
</svg>
