<svg xmlns="http://www.w3.org/2000/svg" width="164" height="28" viewBox="0 0 164 28">
    <g fill="none" fill-rule="evenodd">
        <path fill="#D8D8D8" fill-opacity="0" d="M0 0h100v23H0z"/>
        <path fill="#FFF" d="M94.688.977L99.99 6.38 94.67 11.8 89.365 6.4z"/>
        <text fill="#FFF" font-family="Roboto-Light, Roboto" font-size="23" font-weight="300">
            <tspan x="105.312" y="22">LOAN</tspan>
        </text>
        <g fill="#FFF" fill-rule="nonzero">
            <path d="M23.327 6.072h-2.942l-.308.281-3.02 10.841h-.019l-3.384-10.84-.308-.282H10.27l-.307.281-3.366 10.781-.058-.04-.019-.02L3.5 6.354l-.308-.282h-3L0 6.353 4.712 21.62l.326.302H8l.327-.302 3.365-10.921h.077l3.385 10.921.327.302h3l.327-.302 4.711-15.266zM56.615 6.072h-2.961l-.327.281-4.135 11.284-.038.02-4.096-11.304-.327-.281h-3.02l-.192.281 5.904 15.266.346.302H50.5l.346-.302 5.962-15.266zM71.885 14.841l.288-.281v-.463c0-2.474-.673-4.606-2-6.094-1.327-1.489-3.115-2.253-5.308-2.253-2.115 0-3.884.825-5.25 2.434-1.365 1.609-2.038 3.56-2.038 5.772 0 2.353.711 4.325 2.115 5.873 1.404 1.549 3.25 2.333 5.481 2.333 1.615 0 3-.402 4.115-1.227 1.116-.804 2.289-2.132 2.693-3.942l-.212-.301H69l-.385.301c-.692 1.448-1.75 2.132-3.5 2.132-1.134 0-2.153-.422-3-1.247-.807-.784-1.269-1.73-1.384-3.077l11.154.04zm-10.962-2.816c.48-1.87 1.98-3.258 3.942-3.258 2.597 0 3.673 1.93 3.981 3.258h-7.923zM36.712 6.072l-.289.302v1.568l-.058.06c-.384-.522-.903-.985-1.519-1.367-.134-.08-.288-.16-.442-.241-.827-.423-1.77-.624-2.789-.624-1.903 0-3.577.805-4.961 2.373-1.385 1.57-2.077 3.54-2.077 5.853 0 2.313.692 4.285 2.077 5.853 1.384 1.57 3.058 2.374 4.961 2.374 1.02 0 1.943-.201 2.77-.624.153-.08.327-.16.48-.261.597-.382 1.097-.805 1.481-1.308.02-.02.077.02.096 0v1.63l.289.301h2.519l.288-.301V6.353l-.288-.301h-2.538v.02zm-1.558 11.706c-.846.945-1.866 1.408-3.096 1.408-1.193 0-2.077-.463-2.943-1.428-.865-.946-1.288-2.213-1.288-3.802 0-1.569.442-2.836 1.288-3.801.866-.946 1.731-1.428 2.943-1.428 1.211 0 2.23.462 3.096 1.408.558.623.923 1.367 1.134 2.272v3.058c-.192.945-.576 1.71-1.134 2.313zM82.558 12.75s-1.654-.363-3.02-.684c-1.25-.302-1.884-.684-1.884-1.61 0-.985.904-1.81 2.846-1.81 1.904 0 2.962.885 2.962 1.67l.326.301h2.77l.211-.281c0-2.072-1.711-4.546-6.192-4.546-4.673 0-6.135 2.876-6.135 4.727 0 1.549.539 3.379 4.116 4.244l3.077.724c1.557.362 2.211.925 2.211 1.87 0 .865-.827 1.911-2.98 1.911-2 0-3.212-1.006-3.27-2.192l-.346-.302h-2.827l-.211.302c.25 2.655 2.134 5.149 6.634 5.149 5.096 0 6.135-3.259 6.135-4.968 0-2.293-1.25-3.782-4.423-4.506z"/>
        </g>
    </g>
</svg>
