<svg xmlns="http://www.w3.org/2000/svg" width="124" height="16" viewBox="0 0 124 16">
    <g fill="none" fill-rule="evenodd">
        <path fill="#05F" fill-opacity="0" d="M0 0h124v16H0z"/>
        <path fill="#05F" fill-opacity="0" d="M65 1.146h57.36V12.85H65z"/>
        <path fill="#F9FBFD" d="M122.354 3.986l-2.99 2.942-2.989-2.942 2.99-2.943z"/>
        <path fill="#FFF" fill-rule="nonzero" d="M112.413 7.676c-1.817-.39-.947-.195-1.729-.369-.716-.162-1.079-.368-1.079-.867 0-.53.518-.975 1.63-.975 1.09 0 1.695.477 1.695.9 0 .108.062.162.187.162h1.586c.08 0 .12-.05.12-.152 0-1.116-.98-2.449-3.544-2.449-2.676 0-3.512 1.55-3.512 2.547 0 .834.308 1.82 2.356 2.286l1.761.39c.892.196 1.266.5 1.266 1.008 0 .466-.473 1.03-1.706 1.03-1.145 0-1.839-.542-1.872-1.181 0-.109-.066-.163-.198-.163h-1.618c-.032 0-.122 0-.122.163.144 1.43 1.222 2.774 3.799 2.774 2.917 0 3.512-1.756 3.512-2.677 0-1.235-.716-2.037-2.532-2.427zM106.302 8.824c.1 0 .155-.05.165-.15v-.25c0-1.333-.385-2.482-1.145-3.284-.76-.802-1.783-1.214-3.038-1.214-1.211 0-2.224.444-3.006 1.311-.782.867-1.167 1.919-1.167 3.11 0 1.269.408 2.33 1.211 3.165.804.835 1.86 1.257 3.138 1.257.925 0 1.717-.216 2.356-.66.639-.434 1.31-1.15 1.541-2.125.008-.108-.033-.162-.12-.162h-1.586c-.09 0-.163.054-.22.162-.397.78-1.002 1.149-2.004 1.149a2.48 2.48 0 0 1-1.718-.672c-.462-.423-.726-.932-.792-1.658l6.385.021zm-6.275-1.517c.275-1.008 1.134-1.755 2.257-1.755 1.486 0 2.103 1.04 2.279 1.755h-4.536zM97.71 3.926h-1.696c-.079.007-.141.059-.187.156l-2.384 6.428-2.35-6.428c-.039-.104-.101-.156-.188-.156h-1.728c-.105 0-.142.052-.11.156l3.38 8.455c.03.112.096.167.198.167h1.563c.081 0 .147-.055.198-.167l3.413-8.455c.032-.1-.005-.153-.11-.156zM86 4.1v.996c0 .044-.028.04-.032.033a3.047 3.047 0 0 0-.87-.737c-.077-.043-.165-.087-.253-.13-.474-.228-1.013-.336-1.597-.336-1.09 0-2.047.434-2.84 1.279-.793.845-1.19 1.907-1.19 3.153 0 1.247.397 2.309 1.19 3.154.793.845 1.75 1.279 2.84 1.279.584 0 1.112-.108 1.586-.336.088-.043.187-.087.275-.14.341-.207.627-.434.848-.705.01-.011.048-.03.055 0v.877c-.008.109.047.163.165.163h1.442c.11 0 .165-.054.165-.163V4.09c0-.109-.055-.163-.165-.163h-1.453c-.11 0-.165.058-.165.173zm-.726 6.296c-.484.51-.79.694-1.624.759-.834.064-1.635-.25-2.13-.77-.496-.51-.738-1.192-.738-2.048 0-.845.253-1.528.738-2.048.495-.51 1.288-.77 1.982-.77.693 0 1.277.25 1.772.759.32.336.528.737.65 1.224.12.488.11 1.138 0 1.648-.11.509-.33.92-.65 1.246zM78.503 3.926H76.82c-.093 0-.152.052-.176.156l-1.721 6.574-1.957-6.574c-.027-.104-.086-.156-.176-.156h-1.761c-.081 0-.14.052-.176.156l-2.049 6.574-1.65-6.574c-.023-.104-.082-.156-.177-.156H65.26c-.09 0-.127.052-.11.156l2.697 8.455c.026.112.089.167.187.167h1.696c.089 0 .151-.055.187-.167l1.966-6.16 1.942 6.16c.027.112.09.167.187.167h1.718c.08 0 .143-.055.187-.167l2.697-8.455c.024-.104-.013-.156-.11-.156zM4.558 4.5c1.995 0 3.393.444 3.393 2.433 0 2-1.398 2.434-3.393 2.434H3.15v3.189H2V4.5h2.558zm-1.408.956v2.922h1.499c1.194 0 2.13-.122 2.13-1.445 0-1.31-.936-1.477-2.13-1.477h-1.5zm11 4.133c0 2.167-1.5 3.111-2.908 3.111-1.41 0-2.908-.944-2.908-3.111 0-2.167 1.499-3.111 2.908-3.111 1.408 0 2.907.944 2.907 3.11zm-2.908 2.222c.924 0 1.814-.689 1.814-2.222 0-1.589-.89-2.222-1.814-2.222-.925 0-1.815.589-1.815 2.222 0 1.589.89 2.222 1.815 2.222zm6.796-5.233h1.059L20.303 11l1.16-4.422h1.105l-1.747 5.978h-.935l-1.341-4.812-1.296 4.812h-.936l-1.747-5.978h1.105L16.83 11l1.207-4.422zm6.03 3.322c.044 1.289.968 1.911 1.87 1.911.902 0 1.398-.4 1.657-.989h1.06c-.283 1.034-1.24 1.878-2.717 1.878-1.916 0-2.975-1.356-2.975-3.122 0-1.89 1.285-3.1 2.941-3.1 1.849 0 2.964 1.533 2.83 3.422h-4.667zm.01-.867h3.573c-.022-.844-.665-1.689-1.747-1.689-.913 0-1.735.49-1.825 1.69zm8.87-1.4c-.214-.022-.405-.044-.575-.044-.946 0-1.42.522-1.42 1.833v3.134h-1.025V6.578h1.003v1.044c.304-.678.924-1.055 1.713-1.078.101 0 .192 0 .304.012v1.077zM34.504 9.9c.045 1.289.969 1.911 1.87 1.911.902 0 1.398-.4 1.657-.989h1.06c-.282 1.034-1.24 1.878-2.717 1.878-1.916 0-2.975-1.356-2.975-3.122 0-1.89 1.285-3.1 2.942-3.1 1.848 0 2.964 1.533 2.828 3.422h-4.665zm.01-.867h3.573c-.022-.844-.664-1.689-1.746-1.689-.913 0-1.736.49-1.826 1.69zM44.58 4.5h1.026v8.056h-1.026v-.9c-.372.633-1.014 1.044-1.983 1.044-1.387 0-2.593-1.133-2.593-3.111 0-1.967 1.206-3.111 2.593-3.111.969 0 1.611.41 1.983 1.044V4.5zm-1.724 2.844c-1.048 0-1.736.823-1.736 2.245 0 1.422.688 2.244 1.736 2.244.913 0 1.77-.666 1.77-2.244 0-1.578-.857-2.245-1.77-2.245zm8.07-2.844v3.022c.371-.633 1.014-1.044 1.983-1.044 1.386 0 2.592 1.144 2.592 3.11 0 1.979-1.206 3.112-2.592 3.112-.97 0-1.612-.411-1.984-1.044v.9H49.9V4.5h1.025zm1.724 7.333c1.048 0 1.735-.822 1.735-2.244 0-1.422-.687-2.245-1.735-2.245-.913 0-1.77.667-1.77 2.245s.857 2.244 1.77 2.244zM61 6.578l-2.164 6.233c-.44 1.3-.755 1.689-2.107 1.689h-.53v-.844h.417c.676 0 1.003-.045 1.273-.978l.045-.122-2.186-5.978h1.138l1.544 4.61 1.5-4.61H61z"/>
    </g>
</svg>
