<svg xmlns="http://www.w3.org/2000/svg" width="48" height="48" viewBox="0 0 48 48">
    <g fill="none" fill-rule="evenodd">
        <path fill="#C4D0EF" fill-rule="nonzero" d="M46.084 14.657c-2.53-5.9-6.831-10.19-12.78-12.728A23.59 23.59 0 0 0 23.96.013c-3.254 0-6.347.642-9.317 1.916-5.9 2.53-10.22 6.819-12.754 12.728C.62 17.618 0 20.72 0 23.974c0 3.254.62 6.382 1.89 9.343 2.535 5.91 6.855 10.223 12.754 12.755a23.348 23.348 0 0 0 9.317 1.915c3.254 0 6.37-.648 9.342-1.915 5.95-2.538 10.25-6.856 12.781-12.755A23.476 23.476 0 0 0 48 23.974c0-3.254-.641-6.346-1.916-9.317zm-3.831 19.92c-1.884 3.23-4.465 5.794-7.716 7.689-3.23 1.884-6.771 2.834-10.576 2.834-2.86 0-5.59-.55-8.188-1.68-2.598-1.128-4.842-2.61-6.719-4.487-1.876-1.877-3.37-4.142-4.487-6.745-1.114-2.593-1.653-5.353-1.653-8.214 0-3.806.935-7.328 2.808-10.55 1.88-3.234 4.462-5.8 7.69-7.69C16.638 3.846 20.155 2.9 23.96 2.9c3.805 0 7.345.95 10.576 2.835 3.25 1.895 5.826 4.46 7.715 7.689 1.89 3.228 2.834 6.744 2.834 10.55 0 3.805-.938 7.351-2.833 10.603z"/>
        <path fill="#1F5AF6" fill-rule="nonzero" d="M36.974 18.396C35.596 16.85 33.652 16 31.5 16c-2.653 0-4.65 1.512-6.05 3.19.532.808.946 1.581 1.248 2.209 1.075-1.532 2.685-3.08 4.802-3.08 2.988 0 5.156 2.39 5.156 5.681 0 3.292-2.168 5.681-5.156 5.681-4.271 0-6.369-5.99-6.389-6.05l-.006-.016C24.995 23.305 22.331 16 16.5 16c-2.152 0-4.096.85-5.474 2.396C9.719 19.859 9 21.85 9 24s.72 4.14 2.026 5.604C12.404 31.15 14.348 32 16.5 32c2.675 0 4.662-1.474 6.05-3.128a18.4 18.4 0 0 1-1.243-2.22c-1.061 1.514-2.66 3.03-4.807 3.03-2.988 0-5.156-2.39-5.156-5.682 0-3.292 2.168-5.681 5.156-5.681 4.122 0 6.323 5.87 6.393 6.061.156.454 2.71 7.62 8.607 7.62 2.152 0 4.096-.85 5.474-2.396C38.281 28.141 39 26.15 39 24s-.72-4.14-2.026-5.604z"/>
    </g>
</svg>
